<svg width="21" height="24" viewBox="0 0 21 24" fill="none" xmlns="http://www.w3.org/2000/svg">
<path d="M10.5 24C12.1556 24 13.4986 22.657 13.4986 21H7.50142C7.50142 22.657 8.84438 24 10.5 24ZM20.5964 16.9823C19.6908 16.0092 17.9962 14.5453 17.9962 9.75C17.9962 6.10781 15.4425 3.19219 11.9991 2.47688V1.5C11.9991 0.671719 11.3278 0 10.5 0C9.67219 0 9.00094 0.671719 9.00094 1.5V2.47688C5.55752 3.19219 3.00377 6.10781 3.00377 9.75C3.00377 14.5453 1.30925 16.0092 0.403625 16.9823C0.122376 17.2847 -0.00231133 17.6461 3.24087e-05 18C0.00518864 18.7687 0.608468 19.5 1.50472 19.5H19.4953C20.3915 19.5 20.9953 18.7687 21 18C21.0023 17.6461 20.8776 17.2842 20.5964 16.9823V16.9823Z" fill="white"/>
</svg>
