<svg width="34" height="34" viewBox="0 0 34 34" fill="none" xmlns="http://www.w3.org/2000/svg">
<g filter="url(#filter0_d_116_30)">
<circle cx="17" cy="15" r="15" fill="#E52527"/>
</g>
<g filter="url(#filter1_d_116_30)">
<path d="M10.9286 21.5938C10.9286 21.9667 11.0753 22.3244 11.3365 22.5881C11.5977 22.8518 11.952 23 12.3214 23H20.6786C21.048 23 21.4023 22.8518 21.6635 22.5881C21.9247 22.3244 22.0714 21.9667 22.0714 21.5938V11.75H10.9286V21.5938ZM18.8214 14.0938C18.8214 13.9694 18.8703 13.8502 18.9574 13.7623C19.0445 13.6744 19.1626 13.625 19.2857 13.625C19.4089 13.625 19.5269 13.6744 19.614 13.7623C19.7011 13.8502 19.75 13.9694 19.75 14.0938V20.6563C19.75 20.7806 19.7011 20.8998 19.614 20.9877C19.5269 21.0756 19.4089 21.125 19.2857 21.125C19.1626 21.125 19.0445 21.0756 18.9574 20.9877C18.8703 20.8998 18.8214 20.7806 18.8214 20.6563V14.0938ZM16.0357 14.0938C16.0357 13.9694 16.0846 13.8502 16.1717 13.7623C16.2588 13.6744 16.3769 13.625 16.5 13.625C16.6231 13.625 16.7412 13.6744 16.8283 13.7623C16.9154 13.8502 16.9643 13.9694 16.9643 14.0938V20.6563C16.9643 20.7806 16.9154 20.8998 16.8283 20.9877C16.7412 21.0756 16.6231 21.125 16.5 21.125C16.3769 21.125 16.2588 21.0756 16.1717 20.9877C16.0846 20.8998 16.0357 20.7806 16.0357 20.6563V14.0938ZM13.25 14.0938C13.25 13.9694 13.2989 13.8502 13.386 13.7623C13.4731 13.6744 13.5911 13.625 13.7143 13.625C13.8374 13.625 13.9555 13.6744 14.0426 13.7623C14.1297 13.8502 14.1786 13.9694 14.1786 14.0938V20.6563C14.1786 20.7806 14.1297 20.8998 14.0426 20.9877C13.9555 21.0756 13.8374 21.125 13.7143 21.125C13.5911 21.125 13.4731 21.0756 13.386 20.9877C13.2989 20.8998 13.25 20.7806 13.25 20.6563V14.0938ZM22.5357 8.9375H19.0536L18.7808 8.38965C18.723 8.27253 18.634 8.17401 18.5238 8.10517C18.4136 8.03633 18.2865 7.99991 18.1569 8.00001H14.8402C14.7109 7.9995 14.584 8.03579 14.4742 8.1047C14.3644 8.17362 14.276 8.27237 14.2192 8.38965L13.9464 8.9375H10.4643C10.3411 8.9375 10.2231 8.98689 10.136 9.0748C10.0489 9.16271 10 9.28193 10 9.40625V10.3438C10 10.4681 10.0489 10.5873 10.136 10.6752C10.2231 10.7631 10.3411 10.8125 10.4643 10.8125H22.5357C22.6588 10.8125 22.7769 10.7631 22.864 10.6752C22.9511 10.5873 23 10.4681 23 10.3438V9.40625C23 9.28193 22.9511 9.16271 22.864 9.0748C22.7769 8.98689 22.6588 8.9375 22.5357 8.9375Z" fill="white"/>
</g>
<defs>
<filter id="filter0_d_116_30" x="0" y="0" width="34" height="34" filterUnits="userSpaceOnUse" color-interpolation-filters="sRGB">
<feFlood flood-opacity="0" result="BackgroundImageFix"/>
<feColorMatrix in="SourceAlpha" type="matrix" values="0 0 0 0 0 0 0 0 0 0 0 0 0 0 0 0 0 0 127 0" result="hardAlpha"/>
<feOffset dy="2"/>
<feGaussianBlur stdDeviation="1"/>
<feComposite in2="hardAlpha" operator="out"/>
<feColorMatrix type="matrix" values="0 0 0 0 0 0 0 0 0 0 0 0 0 0 0 0 0 0 0.25 0"/>
<feBlend mode="normal" in2="BackgroundImageFix" result="effect1_dropShadow_116_30"/>
<feBlend mode="normal" in="SourceGraphic" in2="effect1_dropShadow_116_30" result="shape"/>
</filter>
<filter id="filter1_d_116_30" x="6" y="8" width="21" height="23" filterUnits="userSpaceOnUse" color-interpolation-filters="sRGB">
<feFlood flood-opacity="0" result="BackgroundImageFix"/>
<feColorMatrix in="SourceAlpha" type="matrix" values="0 0 0 0 0 0 0 0 0 0 0 0 0 0 0 0 0 0 127 0" result="hardAlpha"/>
<feOffset dy="4"/>
<feGaussianBlur stdDeviation="2"/>
<feComposite in2="hardAlpha" operator="out"/>
<feColorMatrix type="matrix" values="0 0 0 0 0 0 0 0 0 0 0 0 0 0 0 0 0 0 0.25 0"/>
<feBlend mode="normal" in2="BackgroundImageFix" result="effect1_dropShadow_116_30"/>
<feBlend mode="normal" in="SourceGraphic" in2="effect1_dropShadow_116_30" result="shape"/>
</filter>
</defs>
</svg>
