<svg width="34" height="34" viewBox="0 0 34 34" fill="none" xmlns="http://www.w3.org/2000/svg">
<g filter="url(#filter0_d_212_103)">
<circle cx="17" cy="15" r="15" fill="#378DFC"/>
</g>
<path d="M23.8657 9.32376C23.9516 9.4099 23.9998 9.52656 23.9998 9.64818C23.9998 9.7698 23.9516 9.88647 23.8657 9.9726L22.9071 10.9321L21.0688 9.09401L22.0274 8.13454C22.1136 8.04839 22.2305 8 22.3524 8C22.4742 8 22.5911 8.04839 22.6773 8.13454L23.8657 9.32285V9.32376ZM22.2572 11.5809L20.4189 9.74284L14.1568 16.0051C14.1062 16.0557 14.0681 16.1174 14.0455 16.1852L13.3056 18.4038C13.2922 18.4442 13.2903 18.4876 13.3001 18.5291C13.31 18.5705 13.3311 18.6085 13.3612 18.6386C13.3914 18.6687 13.4293 18.6899 13.4708 18.6997C13.5122 18.7095 13.5556 18.7076 13.5961 18.6942L15.8149 17.9544C15.8827 17.9321 15.9444 17.8943 15.9951 17.8441L22.2572 11.5818V11.5809Z" fill="white"/>
<path fill-rule="evenodd" clip-rule="evenodd" d="M10 20.5C10 20.8978 10.158 21.2794 10.4393 21.5607C10.7206 21.842 11.1022 22 11.5 22H22.5C22.8978 22 23.2794 21.842 23.5607 21.5607C23.842 21.2794 24 20.8978 24 20.5V14.5C24 14.3674 23.9473 14.2402 23.8536 14.1464C23.7598 14.0527 23.6326 14 23.5 14C23.3674 14 23.2402 14.0527 23.1464 14.1464C23.0527 14.2402 23 14.3674 23 14.5V20.5C23 20.6326 22.9473 20.7598 22.8536 20.8536C22.7598 20.9473 22.6326 21 22.5 21H11.5C11.3674 21 11.2402 20.9473 11.1464 20.8536C11.0527 20.7598 11 20.6326 11 20.5V9.5C11 9.36739 11.0527 9.24021 11.1464 9.14645C11.2402 9.05268 11.3674 9 11.5 9H18C18.1326 9 18.2598 8.94732 18.3536 8.85355C18.4473 8.75979 18.5 8.63261 18.5 8.5C18.5 8.36739 18.4473 8.24021 18.3536 8.14645C18.2598 8.05268 18.1326 8 18 8H11.5C11.1022 8 10.7206 8.15804 10.4393 8.43934C10.158 8.72064 10 9.10218 10 9.5V20.5Z" fill="white"/>
<defs>
<filter id="filter0_d_212_103" x="0" y="0" width="34" height="34" filterUnits="userSpaceOnUse" color-interpolation-filters="sRGB">
<feFlood flood-opacity="0" result="BackgroundImageFix"/>
<feColorMatrix in="SourceAlpha" type="matrix" values="0 0 0 0 0 0 0 0 0 0 0 0 0 0 0 0 0 0 127 0" result="hardAlpha"/>
<feOffset dy="2"/>
<feGaussianBlur stdDeviation="1"/>
<feComposite in2="hardAlpha" operator="out"/>
<feColorMatrix type="matrix" values="0 0 0 0 0 0 0 0 0 0 0 0 0 0 0 0 0 0 0.25 0"/>
<feBlend mode="normal" in2="BackgroundImageFix" result="effect1_dropShadow_212_103"/>
<feBlend mode="normal" in="SourceGraphic" in2="effect1_dropShadow_212_103" result="shape"/>
</filter>
</defs>
</svg>
