<svg width="28" height="16" viewBox="0 0 28 16" fill="none" xmlns="http://www.w3.org/2000/svg">
<path d="M6.53083 15.3125C5.44615 15.3122 4.3814 14.9608 3.44766 14.2949C2.51392 13.6291 1.74539 12.6731 1.22226 11.5268C0.699124 10.3805 0.440547 9.08579 0.473502 7.77783C0.506457 6.46987 0.829736 5.19654 1.40962 4.09067C1.9895 2.9848 2.80473 2.08691 3.77027 1.49068C4.73581 0.894443 5.81629 0.621702 6.89898 0.70091C7.98167 0.780118 9.0269 1.20837 9.92565 1.941C10.8244 2.67362 11.5437 3.68377 12.0086 4.86607H24.715L27.3127 8L24.715 11.1339L22.9831 9.04464L21.2513 11.1339L19.5195 9.04464L17.7877 11.1339L16.0558 9.04464L14.324 11.1339H12.0086C11.5169 12.3844 10.7412 13.4409 9.77149 14.1806C8.80183 14.9203 7.67807 15.3128 6.53083 15.3125ZM4.79901 10.0893C5.25831 10.0893 5.69881 9.86917 6.02359 9.47735C6.34837 9.08553 6.53083 8.55411 6.53083 8C6.53083 7.44589 6.34837 6.91447 6.02359 6.52265C5.69881 6.13084 5.25831 5.91072 4.79901 5.91072C4.3397 5.91072 3.8992 6.13084 3.57442 6.52265C3.24964 6.91447 3.06718 7.44589 3.06718 8C3.06718 8.55411 3.24964 9.08553 3.57442 9.47735C3.8992 9.86917 4.3397 10.0893 4.79901 10.0893Z" fill="white"/>
</svg>
