<svg width="26" height="20" viewBox="0 0 26 20" fill="none" xmlns="http://www.w3.org/2000/svg">
<path d="M2.13868 19.75C2.13868 19.75 0.59375 19.75 0.59375 18.125C0.59375 16.5 2.13868 11.625 9.8633 11.625C17.5879 11.625 19.1329 16.5 19.1329 18.125C19.1329 19.75 17.5879 19.75 17.5879 19.75H2.13868ZM9.8633 10C11.0925 10 12.2714 9.48639 13.1406 8.57215C14.0098 7.65791 14.4981 6.41793 14.4981 5.125C14.4981 3.83207 14.0098 2.59209 13.1406 1.67785C12.2714 0.763615 11.0925 0.25 9.8633 0.25C8.63408 0.25 7.45521 0.763615 6.58602 1.67785C5.71683 2.59209 5.22853 3.83207 5.22853 5.125C5.22853 6.41793 5.71683 7.65791 6.58602 8.57215C7.45521 9.48639 8.63408 10 9.8633 10Z" fill="white"/>
<path fill-rule="evenodd" clip-rule="evenodd" d="M21.4502 5.125C21.6551 5.125 21.8516 5.2106 21.9964 5.36298C22.1413 5.51535 22.2227 5.72201 22.2227 5.9375V8.375H24.5401C24.7449 8.375 24.9414 8.4606 25.0863 8.61298C25.2311 8.76535 25.3125 8.97201 25.3125 9.1875C25.3125 9.40299 25.2311 9.60965 25.0863 9.76202C24.9414 9.9144 24.7449 10 24.5401 10H22.2227V12.4375C22.2227 12.653 22.1413 12.8597 21.9964 13.012C21.8516 13.1644 21.6551 13.25 21.4502 13.25C21.2453 13.25 21.0489 13.1644 20.904 13.012C20.7591 12.8597 20.6777 12.653 20.6777 12.4375V10H18.3604C18.1555 10 17.959 9.9144 17.8141 9.76202C17.6693 9.60965 17.5879 9.40299 17.5879 9.1875C17.5879 8.97201 17.6693 8.76535 17.8141 8.61298C17.959 8.4606 18.1555 8.375 18.3604 8.375H20.6777V5.9375C20.6777 5.72201 20.7591 5.51535 20.904 5.36298C21.0489 5.2106 21.2453 5.125 21.4502 5.125Z" fill="white"/>
</svg>
