<svg width="30" height="24" viewBox="0 0 30 24" fill="none" xmlns="http://www.w3.org/2000/svg">
<path d="M29.4316 7.925C29.6602 7.73125 30 7.9125 30 8.21875V21C30 22.6562 28.7402 24 27.1875 24H2.8125C1.25977 24 0 22.6562 0 21V8.225C0 7.9125 0.333984 7.7375 0.568359 7.93125C1.88086 9.01875 3.62109 10.4 9.59766 15.0312C10.834 15.9937 12.9199 18.0188 15 18.0063C17.0918 18.025 19.2187 15.9563 20.4082 15.0312C26.3848 10.4 28.1191 9.0125 29.4316 7.925ZM15 16C16.3594 16.025 18.3164 14.175 19.3008 13.4125C27.0762 7.39375 27.668 6.86875 29.4609 5.36875C29.8008 5.0875 30 4.65 30 4.1875V3C30 1.34375 28.7402 0 27.1875 0H2.8125C1.25977 0 0 1.34375 0 3V4.1875C0 4.65 0.199219 5.08125 0.539062 5.36875C2.33203 6.8625 2.92383 7.39375 10.6992 13.4125C11.6836 14.175 13.6406 16.025 15 16Z" fill="white"/>
</svg>
